<?xml version="1.0" standalone="no"?>
<!DOCTYPE svg PUBLIC "-//W3C//DTD SVG 20010904//EN"
 "http://www.w3.org/TR/2001/REC-SVG-20010904/DTD/svg10.dtd">
<svg version="1.0" xmlns="http://www.w3.org/2000/svg"
 width="700.000000pt" height="700.000000pt" viewBox="0 0 700.000000 700.000000"
 preserveAspectRatio="xMidYMid meet">
<metadata>
Created by potrace 1.14, written by Peter Selinger 2001-2017
</metadata>
<g transform="translate(0.000000,700.000000) scale(0.100000,-0.100000)"
fill="#000000" stroke="none">
<path d="M6637 6803 c-5 -3 -491 -15 -777 -18 -173 -2 -1024 -4 -1890 -5 -866
-1 -1606 -6 -1645 -11 -38 -5 -92 -11 -120 -15 -27 -3 -93 -14 -145 -25 -52
-11 -108 -22 -123 -25 -52 -10 -191 -54 -287 -90 -86 -33 -366 -172 -394 -195
-6 -5 -54 -39 -106 -76 -110 -78 -309 -272 -398 -390 -34 -45 -62 -86 -62 -91
0 -5 -9 -17 -20 -27 -11 -10 -20 -22 -20 -26 0 -5 -16 -33 -35 -63 -29 -46
-87 -159 -90 -176 0 -3 -6 -14 -12 -25 -56 -102 -148 -415 -169 -574 -2 -19
-6 -46 -9 -60 -3 -23 -6 -47 -21 -166 -7 -58 -13 -487 -19 -1365 -3 -487 -8
-1272 -11 -1745 -3 -473 -7 -987 -8 -1142 l-2 -283 36 0 c19 -1 1125 -2 2458
-3 l2422 -2 0 55 c0 30 2 921 4 1980 2 1059 6 1945 9 1970 4 25 9 68 11 95 10
95 27 210 46 310 11 55 21 111 24 125 2 14 14 63 26 110 26 104 29 115 35 141
2 12 16 58 31 103 14 44 27 88 29 96 2 8 9 29 15 45 7 17 25 66 41 110 103
279 311 650 474 844 206 244 413 411 654 529 63 30 140 63 170 73 l56 17 -88
-2 c-49 0 -89 -2 -90 -3z m-3484 -1196 c156 -31 318 -149 384 -282 127 -253
56 -548 -168 -702 -105 -73 -214 -104 -344 -98 -85 3 -114 10 -185 43 -241
110 -367 349 -320 603 10 57 16 71 58 158 30 61 125 164 187 203 107 67 268
98 388 75z"/>
</g>
</svg>
